<svg width="512" height="512" viewBox="0 0 512 512" fill="none" xmlns="http://www.w3.org/2000/svg">
  <rect width="512" height="512" rx="96" fill="#E6E8EB"/>
  <g transform="translate(96,96)">
    <path d="M176 30C156 30 142 40 132 54C142 52 151 56 154 62C143 63 131 69 123 78C113 89 110 103 111 118C121 109 136 103 151 102C164 101 177 104 186 111C190 99 189 84 182 70C176 58 165 49 150 46C157 39 166 36 176 36V30Z" fill="#0B0F19"/>
    <path d="M128 126C154 112 186 111 212 124C218 127 223 132 227 138C229 142 228 147 225 151C222 155 217 158 212 158H146C138 158 131 155 126 149C121 144 122 132 128 126Z" fill="#0B0F19"/>
    <circle cx="165" cy="74" r="4" fill="#E6E8EB"/>
  </g>
  <text x="256" y="430" text-anchor="middle" font-family="Outfit, Arial, sans-serif" font-size="108" font-weight="900" fill="#0B0F19" letter-spacing="2">CRESCO</text>
</svg>
